STARTFONT 2.1
FONT -MIT-37VRB KST-Medium-R-Normal--37-13-200-200-P-23-ISO8859-1
SIZE 13 200 200
FONTBOUNDINGBOX 48 37 -11 -10
STARTPROPERTIES 17
ADD_STYLE_NAME ""
AVERAGE_WIDTH 23
CHARSET_ENCODING "1"
CHARSET_REGISTRY "ISO8859"
DEFAULT_CHAR 0
FAMILY "37VRB KST"
FONT_ASCENT 27
FONT_DESCENT 10
FOUNDRY "MIT"
PIXEL_SIZE 37
POINT_SIZE 13
RESOLUTION_X 200
RESOLUTION_Y 200
SETWIDTH_NAME "Normal"
SLANT "R"
SPACING "P"
WEIGHT_NAME "Medium"
ENDPROPERTIES
CHARS 97
STARTCHAR char14
ENCODING 14
SWIDTH 3876 0
DWIDTH 51 0
BBX 48 37 0 -10
BITMAP
000000000000
000000000000
000000000000
00F0003C0FF8
03FC00FF0FF8
07FE01FF8FF8
0F8F03E3C3F8
0F9F03E7C1F8
1F9F07E7C1F8
1F8E07E381F8
1F8007E001F8
1F8007E001F8
FFFC3FFF01F8
FFFC3FFF01F8
FFFC3FFF01F8
1F8007E001F8
1F8007E001F8
1F8007E001F8
1F8007E001F8
1F8007E001F8
1F8007E001F8
1F8007E001F8
1F8007E001F8
1F8007E003FC
3FC00FF00FFF
FFF83FFE0FFF
FFF83FFE0FFF
000000000000
000000000000
000000000000
000000000000
000000000000
000000000000
000000000000
000000000000
000000000000
000000000000
ENDCHAR
STARTCHAR char26
ENCODING 26
SWIDTH 3876 0
DWIDTH 51 0
BBX 48 37 0 -10
BITMAP
000000000000
000000000000
000000000000
00F0003C0000
03FC00FF01F0
07FE01FF83F8
0F8F03E3C3F8
0F9F03E7C3F8
1F9F07E7C3F8
1F8E07E381F0
1F8007E00000
1F8007E00000
FFFC3FFF0FF8
FFFC3FFF0FF8
FFFC3FFF0FF8
1F8007E003F8
1F8007E001F8
1F8007E001F8
1F8007E001F8
1F8007E001F8
1F8007E001F8
1F8007E001F8
1F8007E001F8
1F8007E003FC
3FC00FF00FFF
FFF83FFE0FFF
FFF83FFE0FFF
000000000000
000000000000
000000000000
000000000000
000000000000
000000000000
000000000000
000000000000
000000000000
000000000000
ENDCHAR
STARTCHAR char29
ENCODING 29
SWIDTH 2736 0
DWIDTH 36 0
BBX 34 37 0 -10
BITMAP
0000000000
0000000000
0000000000
00F0003C00
03FC00FF00
07FE01FF80
0F8F03E3C0
0F9F03E7C0
1F9F07E7C0
1F8E07E380
1F8007E000
1F8007E000
FFFC3FFF00
FFFC3FFF00
FFFC3FFF00
1F8007E000
1F8007E000
1F8007E000
1F8007E000
1F8007E000
1F8007E000
1F8007E000
1F8007E000
1F8007E000
3FC00FF000
FFF83FFE00
FFF83FFE00
0000000000
0000000000
0000000000
0000000000
0000000000
0000000000
0000000000
0000000000
0000000000
0000000000
ENDCHAR
STARTCHAR char30
ENCODING 30
SWIDTH 2508 0
DWIDTH 33 0
BBX 30 37 0 -10
BITMAP
00000000
00000000
00000000
00F00000
03FC07C0
07FE0FE0
0F8F0FE0
0F9F0FE0
1F9F0FE0
1F8E07C0
1F800000
1F800000
FFFC3FE0
FFFC3FE0
FFFC3FE0
1F800FE0
1F8007E0
1F8007E0
1F8007E0
1F8007E0
1F8007E0
1F8007E0
1F8007E0
1F800FF0
3FC03FFC
FFF83FFC
FFF83FFC
00000000
00000000
00000000
00000000
00000000
00000000
00000000
00000000
00000000
00000000
ENDCHAR
STARTCHAR char31
ENCODING 31
SWIDTH 2508 0
DWIDTH 33 0
BBX 30 37 0 -10
BITMAP
00000000
00000000
00000000
00F03FE0
03FC3FE0
07FE3FE0
0F8F0FE0
0F9F07E0
1F9F07E0
1F8E07E0
1F8007E0
1F8007E0
FFFC07E0
FFFC07E0
FFFC07E0
1F8007E0
1F8007E0
1F8007E0
1F8007E0
1F8007E0
1F8007E0
1F8007E0
1F8007E0
1F800FF0
3FC03FFC
FFF83FFC
FFF83FFC
00000000
00000000
00000000
00000000
00000000
00000000
00000000
00000000
00000000
00000000
ENDCHAR
STARTCHAR char32
ENCODING 32
SWIDTH 1444 0
DWIDTH 19 0
BBX 1 37 0 -10
BITMAP
00
00
00
00
00
00
00
00
00
00
00
00
00
00
00
00
00
00
00
00
00
00
00
00
00
00
00
00
00
00
00
00
00
00
00
00
00
ENDCHAR
STARTCHAR char34
ENCODING 34
SWIDTH 1140 0
DWIDTH 15 0
BBX 13 37 0 -10
BITMAP
0000
0000
0000
3060
78F0
F8F8
F8F8
F8F8
78F0
78F0
38E0
18C0
0880
0000
0000
0000
0000
0000
0000
0000
0000
0000
0000
0000
0000
0000
0000
0000
0000
0000
0000
0000
0000
0000
0000
0000
0000
ENDCHAR
STARTCHAR char35
ENCODING 35
SWIDTH 1672 0
DWIDTH 22 0
BBX 19 37 1 -10
BITMAP
000000
000000
000000
000000
000000
0E0E00
0E0E00
0E0E00
0E0E00
0E0E00
FFFFE0
FFFFE0
FFFFE0
0E0E00
0E0E00
0E0E00
0E0E00
0E0E00
FFFFE0
FFFFE0
FFFFE0
0E0E00
0E0E00
0E0E00
0E0E00
0E0E00
000000
000000
000000
000000
000000
000000
000000
000000
000000
000000
000000
ENDCHAR
STARTCHAR char36
ENCODING 36
SWIDTH 2128 0
DWIDTH 28 0
BBX 21 37 0 -10
BITMAP
000000
000000
000000
007000
007000
007000
03FE00
0F7780
3C71E0
F070F0
F070F0
F07000
F07000
F87000
787000
3C7000
0FFF80
0071E0
0070F0
007078
007078
007078
F07078
F070F0
7871E0
3C73C0
0FFF00
01FC00
007000
007000
000000
000000
000000
000000
000000
000000
000000
ENDCHAR
STARTCHAR char37
ENCODING 37
SWIDTH 1368 0
DWIDTH 18 0
BBX 16 37 0 -10
BITMAP
0000
0000
0000
0000
0000
0000
3FFE
7E1C
C638
C638
C670
7C70
3870
00E0
00E0
01C0
01C0
0380
0380
0380
071C
073E
0E63
0E63
0E63
1C3E
3FFC
0000
0000
0000
0000
0000
0000
0000
0000
0000
0000
ENDCHAR
STARTCHAR char38
ENCODING 38
SWIDTH 1444 0
DWIDTH 19 0
BBX 16 37 0 -10
BITMAP
0000
0000
0000
0000
0000
0000
0000
0000
0000
0000
0000
0000
F81F
FC3F
7E7E
1FF8
07E0
07E0
1FF8
7E7E
FC3F
F81F
0000
0000
0000
0000
0000
0000
0000
0000
0000
0000
0000
0000
0000
0000
0000
ENDCHAR
STARTCHAR char39
ENCODING 39
SWIDTH 684 0
DWIDTH 9 0
BBX 8 37 0 -10
BITMAP
00
00
00
3C
FE
FF
FF
E7
03
06
1C
38
30
10
00
00
00
00
00
00
00
00
00
00
00
00
00
00
00
00
00
00
00
00
00
00
00
ENDCHAR
STARTCHAR char40
ENCODING 40
SWIDTH 1444 0
DWIDTH 19 0
BBX 10 37 6 -10
BITMAP
0000
0000
01C0
0380
0F00
1F00
1E00
3E00
3C00
3C00
7800
F800
F800
F800
F800
F800
F800
7800
3C00
3C00
3E00
1E00
1E00
0F00
0380
01C0
0000
0000
0000
0000
0000
0000
0000
0000
0000
0000
0000
ENDCHAR
STARTCHAR char41
ENCODING 41
SWIDTH 1444 0
DWIDTH 19 0
BBX 10 37 0 -10
BITMAP
0000
0000
E000
7000
3C00
3E00
1E00
1F00
0F00
0F00
0780
07C0
07C0
07C0
07C0
07C0
07C0
0780
0F00
0F00
1F00
1E00
1E00
3C00
7000
E000
0000
0000
0000
0000
0000
0000
0000
0000
0000
0000
0000
ENDCHAR
STARTCHAR char43
ENCODING 43
SWIDTH 1368 0
DWIDTH 18 0
BBX 14 37 0 -10
BITMAP
0000
0000
0000
0000
0000
0000
0000
0000
0780
0780
0780
0780
0780
FFFC
FFFC
FFFC
FFFC
0780
0780
0780
0780
0780
0000
0000
0000
0000
0000
0000
0000
0000
0000
0000
0000
0000
0000
0000
0000
ENDCHAR
STARTCHAR char44
ENCODING 44
SWIDTH 988 0
DWIDTH 13 0
BBX 8 37 2 -10
BITMAP
00
00
00
00
00
00
00
00
00
00
00
00
00
00
00
00
00
00
00
00
00
7C
FE
FE
FF
FF
7F
0F
0F
1E
1C
18
10
00
00
00
00
ENDCHAR
STARTCHAR char45
ENCODING 45
SWIDTH 1140 0
DWIDTH 15 0
BBX 12 37 0 -10
BITMAP
0000
0000
0000
0000
0000
0000
0000
0000
0000
0000
0000
0000
0000
0000
FFF0
FFF0
FFF0
FFF0
0000
0000
0000
0000
0000
0000
0000
0000
0000
0000
0000
0000
0000
0000
0000
0000
0000
0000
0000
ENDCHAR
STARTCHAR char46
ENCODING 46
SWIDTH 912 0
DWIDTH 12 0
BBX 7 37 2 -10
BITMAP
00
00
00
00
00
00
00
00
00
00
00
00
00
00
00
00
00
00
00
00
00
7C
FE
FE
FE
FE
7C
00
00
00
00
00
00
00
00
00
00
ENDCHAR
STARTCHAR char47
ENCODING 47
SWIDTH 1216 0
DWIDTH 16 0
BBX 13 37 1 -10
BITMAP
0000
0078
0070
00F0
00F0
00E0
01E0
01E0
01C0
03C0
03C0
0380
0780
0780
0700
0F00
0F00
0E00
1E00
1E00
1C00
3C00
3C00
3800
7800
7800
7000
F000
F000
E000
E000
0000
0000
0000
0000
0000
0000
ENDCHAR
STARTCHAR char48
ENCODING 48
SWIDTH 1976 0
DWIDTH 26 0
BBX 21 37 0 -10
BITMAP
000000
000000
000000
007000
03FE00
0FFF80
1FFFC0
3F07E0
3E03E0
7C03F0
7C01F0
FC01F8
FC01F8
FC01F8
FC01F8
FC01F8
FC01F8
FC01F8
FC01F8
FC01F8
7C01F0
7C01F0
3E03E0
1F8FC0
0FFF80
07FF00
01F800
000000
000000
000000
000000
000000
000000
000000
000000
000000
000000
ENDCHAR
STARTCHAR char49
ENCODING 49
SWIDTH 1444 0
DWIDTH 19 0
BBX 15 37 0 -10
BITMAP
0000
0000
00E0
01E0
01E0
07E0
7FE0
FFE0
FFE0
FFE0
07E0
07E0
07E0
07E0
07E0
07E0
07E0
07E0
07E0
07E0
07E0
07E0
07E0
0FF0
FFFE
FFFE
FFFE
0000
0000
0000
0000
0000
0000
0000
0000
0000
0000
ENDCHAR
STARTCHAR char50
ENCODING 50
SWIDTH 1900 0
DWIDTH 25 0
BBX 21 37 0 -10
BITMAP
000000
000000
000000
00F800
07FF00
1FFFC0
3E1FE0
380FF0
7C07F8
7E03F8
7F03F8
7F03F8
7E03F0
3E07F0
0007E0
001FC0
007F80
01FE00
07F038
0FC038
1E0038
3CE038
7FFC78
7FFFF0
FFFFF0
F0FFE0
C01F80
000000
000000
000000
000000
000000
000000
000000
000000
000000
000000
ENDCHAR
STARTCHAR char51
ENCODING 51
SWIDTH 1672 0
DWIDTH 22 0
BBX 20 37 0 -10
BITMAP
000000
000000
000000
03F800
0FFF00
1FFF80
3E3FC0
780FE0
7C07E0
FE07E0
7E07E0
7E07E0
380FC0
003F80
01FF00
01FF00
00FFC0
380FE0
7C07F0
FE07F0
FE07F0
FC07F0
F807F0
700FE0
3FFFC0
1FFF80
07FC00
000000
000000
000000
000000
000000
000000
000000
000000
000000
000000
ENDCHAR
STARTCHAR char52
ENCODING 52
SWIDTH 1900 0
DWIDTH 25 0
BBX 22 37 0 -10
BITMAP
000000
000000
000000
000380
000780
000F80
001F80
003F80
007F80
00EF80
01CF80
038F80
070F80
0E0F80
1C0F80
380F80
700F80
FFFFFC
FFFFFC
FFFFFC
000F80
000F80
000F80
001F80
01FFF8
01FFF8
01FFF8
000000
000000
000000
000000
000000
000000
000000
000000
000000
000000
ENDCHAR
STARTCHAR char53
ENCODING 53
SWIDTH 1748 0
DWIDTH 23 0
BBX 19 37 0 -10
BITMAP
000000
000000
000000
000060
7FFFE0
7FFFC0
7FFF80
7FFE00
700000
700000
700000
73F800
77FC00
7FFF00
7E7F80
781FC0
700FE0
0007E0
3807E0
7C07E0
FE07E0
FE07E0
FC0FE0
F81FC0
7FFF80
3FFF00
07F800
000000
000000
000000
000000
000000
000000
000000
000000
000000
000000
ENDCHAR
STARTCHAR char54
ENCODING 54
SWIDTH 1824 0
DWIDTH 24 0
BBX 20 37 0 -10
BITMAP
000000
000000
000000
00FC00
03FF00
0FFFC0
1F83C0
3F07E0
3E0FE0
7E0FE0
7C0FE0
FC07C0
FC0000
FCF800
FDFF00
FFFFC0
FF0FE0
FC07E0
FC07F0
FC03F0
FC03F0
7C03F0
7C07E0
3E07C0
1FFFC0
0FFF00
03FC00
000000
000000
000000
000000
000000
000000
000000
000000
000000
000000
ENDCHAR
STARTCHAR char55
ENCODING 55
SWIDTH 1824 0
DWIDTH 24 0
BBX 20 37 0 -10
BITMAP
000000
000000
000000
000000
E7E0F0
EFFFF0
FFFFF0
FFFFF0
F8FFF0
F003E0
E007C0
E00F80
E01F00
E03E00
003E00
007C00
00FC00
01F800
01F000
03F000
07F000
07E000
07E000
0FC000
0FC000
0FC000
0FC000
000000
000000
000000
000000
000000
000000
000000
000000
000000
000000
ENDCHAR
STARTCHAR char56
ENCODING 56
SWIDTH 1748 0
DWIDTH 23 0
BBX 19 37 0 -10
BITMAP
000000
000000
000000
03F800
0FFF00
1FFF80
3E0FC0
7C07C0
7803E0
F803E0
F803E0
FC07C0
7F9F80
7FFF00
3FFE00
1FFE00
0FFF00
3F7FC0
7C1FE0
F807E0
F803E0
F801E0
F803C0
7C07C0
7FFF80
1FFF00
03F000
000000
000000
000000
000000
000000
000000
000000
000000
000000
000000
ENDCHAR
STARTCHAR char57
ENCODING 57
SWIDTH 1824 0
DWIDTH 24 0
BBX 20 37 0 -10
BITMAP
000000
000000
000000
03F000
0FFC00
1FFE00
3F1F80
7E07C0
FC07C0
FC07E0
FC03E0
FC03F0
FC03F0
FC07F0
7FFFF0
7FFFF0
1FFBF0
03E3F0
3803F0
7C03F0
7E07E0
FE07E0
FE0FC0
7C1F80
3FFF00
1FFE00
07F000
000000
000000
000000
000000
000000
000000
000000
000000
000000
000000
ENDCHAR
STARTCHAR char58
ENCODING 58
SWIDTH 912 0
DWIDTH 12 0
BBX 7 37 2 -10
BITMAP
00
00
00
00
00
00
00
7C
FE
FE
FE
FE
7C
00
00
00
00
00
00
00
00
7C
FE
FE
FE
FE
7C
00
00
00
00
00
00
00
00
00
00
ENDCHAR
STARTCHAR char59
ENCODING 59
SWIDTH 988 0
DWIDTH 13 0
BBX 8 37 2 -10
BITMAP
00
00
00
00
00
00
00
7C
FE
FE
FE
FE
7C
00
00
00
00
00
00
00
00
7C
FE
FE
FF
FF
7F
0F
0F
1E
1C
18
10
00
00
00
00
ENDCHAR
STARTCHAR char60
ENCODING 60
SWIDTH 1900 0
DWIDTH 25 0
BBX 20 37 1 -10
BITMAP
000000
000000
000000
000000
000000
000000
000000
0000F0
0001F0
0007F0
001F80
007E00
01F800
07E000
1FC000
FE0000
FE0000
FE0000
1FC000
07E000
01F800
007E00
001F80
0007F0
0001F0
0000F0
000000
000000
000000
000000
000000
000000
000000
000000
000000
000000
000000
ENDCHAR
STARTCHAR char61
ENCODING 61
SWIDTH 1444 0
DWIDTH 19 0
BBX 16 37 1 -10
BITMAP
0000
0000
0000
0000
0000
0000
0000
0000
0000
0000
0000
0000
FFFF
FFFF
0000
0000
0000
0000
FFFF
FFFF
0000
0000
0000
0000
0000
0000
0000
0000
0000
0000
0000
0000
0000
0000
0000
0000
0000
ENDCHAR
STARTCHAR char62
ENCODING 62
SWIDTH 1900 0
DWIDTH 25 0
BBX 20 37 1 -10
BITMAP
000000
000000
000000
000000
000000
000000
000000
F00000
F80000
FE0000
1F8000
07E000
01F800
007E00
003F80
0007F0
0007F0
0007F0
003F80
007E00
01F800
07E000
1FC000
FE0000
F80000
F00000
000000
000000
000000
000000
000000
000000
000000
000000
000000
000000
000000
ENDCHAR
STARTCHAR char63
ENCODING 63
SWIDTH 1596 0
DWIDTH 21 0
BBX 13 37 0 -10
BITMAP
0000
0000
0000
1F00
3FC0
79E0
78F0
F070
F878
F8F8
70F8
01F8
01F0
03E0
0780
0F00
0E00
0C00
0C00
0000
0000
1E00
3F00
3F00
3F00
3F00
1E00
0000
0000
0000
0000
0000
0000
0000
0000
0000
0000
ENDCHAR
STARTCHAR char65
ENCODING 65
SWIDTH 2356 0
DWIDTH 31 0
BBX 27 37 0 -10
BITMAP
00000000
00000000
00000000
001F0000
001F0000
003F8000
003F8000
007FC000
007FC000
00FFC000
00E7E000
00E7E000
01E7E000
01C3F000
03C3F000
0381F800
0781F800
07FFF800
0FFFFC00
0FFFFC00
1FFFFE00
1F00FE00
1E007E00
3E007F00
FFC7FFE0
FFC7FFE0
FFC7FFE0
00000000
00000000
00000000
00000000
00000000
00000000
00000000
00000000
00000000
00000000
ENDCHAR
STARTCHAR char66
ENCODING 66
SWIDTH 2128 0
DWIDTH 28 0
BBX 25 37 0 -10
BITMAP
00000000
00000000
00000000
FFFFE000
FFFFF800
FFFFFC00
FFC0FE00
1F807F00
0F803F00
0F803F00
0F803F00
0F803F00
0F807E00
0FFFFC00
0FFFF800
0FFFF800
0FFFFE00
0F807F00
0F803F00
0F801F80
0F801F80
0F801F80
0F803F00
1F807F00
FFFFFE00
FFFFFC00
FFFFF000
00000000
00000000
00000000
00000000
00000000
00000000
00000000
00000000
00000000
00000000
ENDCHAR
STARTCHAR char67
ENCODING 67
SWIDTH 1976 0
DWIDTH 26 0
BBX 22 37 0 -10
BITMAP
000000
000000
000000
00FE3C
03FF3C
07FFFC
0FE3FC
1F81FC
3F00FC
3F007C
7E007C
7E003C
7E003C
FE0000
FE0000
FE0000
FE0000
FE003C
FE003C
FE003C
7E0078
7F0078
3F00F0
1FC3F0
0FFFE0
07FF80
01FE00
000000
000000
000000
000000
000000
000000
000000
000000
000000
000000
ENDCHAR
STARTCHAR char68
ENCODING 68
SWIDTH 2280 0
DWIDTH 30 0
BBX 26 37 0 -10
BITMAP
00000000
00000000
00000000
FFFF0000
FFFFE000
FFFFF800
FF81FC00
3F80FE00
1F803F00
1F803F80
1F801F80
1F801F80
1F801FC0
1F801FC0
1F801FC0
1F801FC0
1F801FC0
1F801FC0
1F801F80
1F801F80
1F801F80
1F803F00
1F807E00
3F81FC00
FFFFF800
FFFFF000
FFFF8000
00000000
00000000
00000000
00000000
00000000
00000000
00000000
00000000
00000000
00000000
ENDCHAR
STARTCHAR char69
ENCODING 69
SWIDTH 2204 0
DWIDTH 29 0
BBX 25 37 0 -10
BITMAP
00000000
00000000
00000000
FFFFFF80
FFFFFF80
FFFFFF80
1FE01F80
0FE00780
0FE00780
0FE3C780
0FE3C780
0FE3C780
0FE3C780
0FE3C000
0FFFC000
0FFFC000
0FFFC000
0FC3C780
0FC3C780
0FC3C780
0FC3C780
0FC00780
0FC00780
1FC01F80
FFFFFF80
FFFFFF80
FFFFFF80
00000000
00000000
00000000
00000000
00000000
00000000
00000000
00000000
00000000
00000000
ENDCHAR
STARTCHAR char70
ENCODING 70
SWIDTH 2052 0
DWIDTH 27 0
BBX 23 37 0 -10
BITMAP
000000
000000
000000
FFFFFE
FFFFFE
FFFFFE
3F80FE
1F803E
1F801E
1F801E
1F839E
1F839E
1F839E
1F8780
1FFF80
1FFF80
1FFF80
1F8780
1F8380
1F8380
1F8380
1F8000
1F8000
3FC000
FFFC00
FFFC00
FFFC00
000000
000000
000000
000000
000000
000000
000000
000000
000000
000000
ENDCHAR
STARTCHAR char71
ENCODING 71
SWIDTH 2280 0
DWIDTH 30 0
BBX 26 37 0 -10
BITMAP
00000000
00000000
00000000
007C1C00
01FF1C00
07FFFC00
0FF7FC00
1FC1FC00
3F80FC00
7F007C00
7E003C00
7E003C00
FE003C00
FC001C00
FC000000
FC000000
FC0FFFC0
FC0FFFC0
FC0FFFC0
FE00FC00
FE00FC00
7E00FC00
7F00FC00
3F81FC00
1FFFFC00
0FFFBC00
03FF1C00
00000000
00000000
00000000
00000000
00000000
00000000
00000000
00000000
00000000
00000000
ENDCHAR
STARTCHAR char72
ENCODING 72
SWIDTH 2432 0
DWIDTH 32 0
BBX 28 37 0 -10
BITMAP
00000000
00000000
00000000
FFF9FFF0
FFF9FFF0
FFF9FFF0
3FC03FC0
1F801F80
1F801F80
1F801F80
1F801F80
1F801F80
1F801F80
1FFFFF80
1FFFFF80
1FFFFF80
1F801F80
1F801F80
1F801F80
1F801F80
1F801F80
1F801F80
1F801F80
3FC03FC0
FFF9FFF0
FFF9FFF0
FFF9FFF0
00000000
00000000
00000000
00000000
00000000
00000000
00000000
00000000
00000000
00000000
ENDCHAR
STARTCHAR char73
ENCODING 73
SWIDTH 1368 0
DWIDTH 18 0
BBX 14 37 0 -10
BITMAP
0000
0000
0000
FFFC
FFFC
FFFC
1FE0
0FC0
0FC0
0FC0
0FC0
0FC0
0FC0
0FC0
0FC0
0FC0
0FC0
0FC0
0FC0
0FC0
0FC0
0FC0
0FC0
1FE0
FFFC
FFFC
FFFC
0000
0000
0000
0000
0000
0000
0000
0000
0000
0000
ENDCHAR
STARTCHAR char74
ENCODING 74
SWIDTH 1672 0
DWIDTH 22 0
BBX 18 37 0 -10
BITMAP
000000
000000
000000
07FFC0
07FFC0
07FFC0
00FF00
007E00
007E00
007E00
007E00
007E00
007E00
007E00
007E00
007E00
007E00
007E00
307E00
787E00
FC7E00
FC7E00
F87E00
F0FC00
7FF800
3FF000
1F8000
000000
000000
000000
000000
000000
000000
000000
000000
000000
000000
ENDCHAR
STARTCHAR char75
ENCODING 75
SWIDTH 2204 0
DWIDTH 29 0
BBX 25 37 0 -10
BITMAP
00000000
00000000
00000000
FFEFFF00
FFEFFF00
FFEFFF00
3F83FC00
1F01F000
1F01E000
1F03C000
1F078000
1F0F0000
1F1E0000
1F3E0000
1F7F0000
1FFF8000
1FFFC000
1F8FC000
1F07E000
1F03F000
1F01F000
1F01F800
1F00FC00
3F80FE00
FFE7FF80
FFE7FF80
FFE7FF80
00000000
00000000
00000000
00000000
00000000
00000000
00000000
00000000
00000000
00000000
ENDCHAR
STARTCHAR char76
ENCODING 76
SWIDTH 2052 0
DWIDTH 27 0
BBX 23 37 0 -10
BITMAP
000000
000000
000000
FFFC00
FFFC00
FFFC00
1FC000
0F8000
0F8000
0F8000
0F8000
0F8000
0F8000
0F8000
0F8000
0F8000
0F8000
0F8000
0F801E
0F801E
0F801E
0F801E
0F801E
1F803E
FFFFFE
FFFFFE
FFFFFE
000000
000000
000000
000000
000000
000000
000000
000000
000000
000000
ENDCHAR
STARTCHAR char77
ENCODING 77
SWIDTH 2888 0
DWIDTH 38 0
BBX 34 37 0 -10
BITMAP
0000000000
0000000000
0000000000
FFE003FFC0
FFE003FFC0
FFF007FFC0
FFF007FFC0
3FF00FFE00
1FF80FFC00
1FF80FFC00
1FF81FFC00
1EFC1EFC00
1EFC1EFC00
1E7C3CFC00
1E7E3CFC00
1E7E3CFC00
1E3F78FC00
1E3F78FC00
1E3FF0FC00
1E1FF0FC00
1E1FF0FC00
1E0FE0FC00
1E0FE0FC00
3F07E1FE00
FFE7CFFFC0
FFE7CFFFC0
FFE38FFFC0
0000000000
0000000000
0000000000
0000000000
0000000000
0000000000
0000000000
0000000000
0000000000
0000000000
ENDCHAR
STARTCHAR char78
ENCODING 78
SWIDTH 2280 0
DWIDTH 30 0
BBX 27 37 0 -10
BITMAP
00000000
00000000
00000000
FF007FE0
FFC07FE0
FFE07FE0
FFF07FE0
3FF01F80
1FF80F00
1FFC0F00
1FFC0F00
1EFE0F00
1E7F0F00
1E7F0F00
1E3F8F00
1E1FCF00
1E0FEF00
1E0FEF00
1E07FF00
1E03FF00
1E03FF00
1E01FF00
1E00FF00
3F00FF00
FFC0FF00
FFC07F00
FFC03F00
00000000
00000000
00000000
00000000
00000000
00000000
00000000
00000000
00000000
00000000
ENDCHAR
STARTCHAR char79
ENCODING 79
SWIDTH 2280 0
DWIDTH 30 0
BBX 25 37 0 -10
BITMAP
00000000
00000000
00000000
00FF0000
03FFC000
07FFF000
0FC3F800
1F81FC00
3F007E00
7E007E00
7E003F00
7C003F00
FC003F00
FC003F80
FC003F80
FC003F80
FC003F80
FC003F80
FC003F00
FC003F00
7E003F00
7E007E00
3F00FC00
1FC3F800
0FFFF000
03FFC000
007C0000
00000000
00000000
00000000
00000000
00000000
00000000
00000000
00000000
00000000
00000000
ENDCHAR
STARTCHAR char80
ENCODING 80
SWIDTH 2052 0
DWIDTH 27 0
BBX 23 37 0 -10
BITMAP
000000
000000
000000
FFFFC0
FFFFF0
FFFFF8
FF81FC
3F80FE
1F807E
1F807E
1F807E
1F807E
1F807E
1F80FE
1FFFFC
1FFFF8
1FFFF0
1FC000
1FC000
1FC000
1FC000
1FC000
1FC000
3FE000
FFFC00
FFFC00
FFFC00
000000
000000
000000
000000
000000
000000
000000
000000
000000
000000
ENDCHAR
STARTCHAR char81
ENCODING 81
SWIDTH 2280 0
DWIDTH 30 0
BBX 27 37 0 -10
BITMAP
00000000
00000000
00000000
003C0000
01FF8000
07FFE000
0FFFF000
1F83F800
3F00FC00
7E007E00
7C007E00
FC007F00
F8003F00
F8003F00
F8003F00
F8003F00
F8003F00
F8383F00
F87C3F00
FCFF3F00
FDFFFE00
7FC7FEE0
3F83FCE0
3FC3F8E0
0FFFFDE0
07FFFFC0
01FFFFC0
00003F80
00001F00
00000000
00000000
00000000
00000000
00000000
00000000
00000000
00000000
ENDCHAR
STARTCHAR char82
ENCODING 82
SWIDTH 2280 0
DWIDTH 30 0
BBX 26 37 0 -10
BITMAP
00000000
00000000
00000000
FFFFF800
FFFFFC00
FFFFFE00
1FC07F00
0FC03F00
0FC03F00
0FC03F00
0FC03F00
0FC03E00
0FC07C00
0FFFF800
0FFFE000
0FFFF800
0FC1F800
0FC0FC00
0FC0FC00
0FC0FC00
0FC0FEC0
0FC0FEC0
0FC0FEC0
1FE0FFC0
FFFC7FC0
FFFC3F80
FFFC1F00
00000000
00000000
00000000
00000000
00000000
00000000
00000000
00000000
00000000
00000000
ENDCHAR
STARTCHAR char83
ENCODING 83
SWIDTH 1824 0
DWIDTH 24 0
BBX 20 37 0 -10
BITMAP
000000
000000
000000
07E1E0
1FFDE0
3FFFE0
7E7FE0
FC1FE0
F807E0
F803E0
F801E0
FC01E0
FFC000
FFFC00
7FFF80
3FFFC0
3FFFE0
07FFE0
E03FF0
E003F0
F001F0
F001F0
F801F0
FE03E0
FFFFC0
EFFF80
E3FF00
000000
000000
000000
000000
000000
000000
000000
000000
000000
000000
ENDCHAR
STARTCHAR char84
ENCODING 84
SWIDTH 2052 0
DWIDTH 27 0
BBX 23 37 0 -10
BITMAP
000000
000000
000000
FFFFFE
FFFFFE
FFFFFE
F8FC7E
F0FC3E
F0FC1E
E0FC1E
E0FC1E
E0FC1E
00FC00
00FC00
00FC00
00FC00
00FC00
00FC00
00FC00
00FC00
00FC00
00FC00
00FC00
01FE00
0FFFE0
0FFFE0
0FFFE0
000000
000000
000000
000000
000000
000000
000000
000000
000000
000000
ENDCHAR
STARTCHAR char85
ENCODING 85
SWIDTH 2204 0
DWIDTH 29 0
BBX 25 37 0 -10
BITMAP
00000000
00000000
00000000
FFF3FF80
FFF3FF80
FFF3FF80
FFF3FF80
3FC07E00
1F803C00
1F803C00
1F803C00
1F803C00
1F803C00
1F803C00
1F803C00
1F803C00
1F803C00
1F803C00
1F803C00
1F803C00
1F803C00
1F807800
0FC07800
0FFFF000
07FFE000
03FFC000
003C0000
00000000
00000000
00000000
00000000
00000000
00000000
00000000
00000000
00000000
00000000
ENDCHAR
STARTCHAR char86
ENCODING 86
SWIDTH 2052 0
DWIDTH 27 0
BBX 24 37 0 -10
BITMAP
000000
000000
000000
FFF3FF
FFF3FF
FFF3FF
3FC07E
1F803C
1F803C
1F8078
1F8078
0FC0F0
0FC0F0
07C0F0
07E1E0
07E1E0
03E1E0
03F3C0
01F3C0
01F7C0
01FF80
00FF80
00FF00
00FF00
007F00
007E00
007E00
000000
000000
000000
000000
000000
000000
000000
000000
000000
000000
ENDCHAR
STARTCHAR char87
ENCODING 87
SWIDTH 2964 0
DWIDTH 39 0
BBX 35 37 0 -10
BITMAP
0000000000
0000000000
0000000000
FFE7FF9FE0
FFE7FF9FE0
FFE7FF9FE0
3F81FE0FC0
1F01FC0780
1F01FC0780
1F81FC0780
1F83FE0780
0F83FE0F00
0FC3FE0F00
0FC3FF0F00
07C7BF1E00
07E79F9E00
07E71F9E00
03EF1FBC00
03FF0FBC00
03FE0FF800
01FE0FF800
01FE07F800
01FC07F000
00FC07F000
00FC03F000
007801E000
007801E000
0000000000
0000000000
0000000000
0000000000
0000000000
0000000000
0000000000
0000000000
0000000000
0000000000
ENDCHAR
STARTCHAR char88
ENCODING 88
SWIDTH 2432 0
DWIDTH 32 0
BBX 28 37 0 -10
BITMAP
00000000
00000000
00000000
FFFCFFF0
FFFCFFF0
FFFCFFF0
1FC03F80
07C03E00
03E07C00
01F0F800
00F1F000
00FBE000
007FC000
003F8000
001F8000
001F8000
003FC000
007FE000
00FBF000
01F1F800
03E0FC00
07C0FE00
0F807F00
3F807FC0
FFF3FFF0
FFF3FFF0
FFF3FFF0
00000000
00000000
00000000
00000000
00000000
00000000
00000000
00000000
00000000
00000000
ENDCHAR
STARTCHAR char89
ENCODING 89
SWIDTH 2204 0
DWIDTH 29 0
BBX 25 37 0 -10
BITMAP
00000000
00000000
00000000
FFF3FF80
FFF3FF80
FFF3FF80
FFF3FF80
3FC07E00
0FC07800
07E0F800
07F0F000
03F1E000
01FBE000
00FFC000
00FF8000
007F8000
003F0000
003F0000
003F0000
003F0000
003F0000
003F0000
003F0000
003F0000
07FFF000
07FFF000
07FFF000
00000000
00000000
00000000
00000000
00000000
00000000
00000000
00000000
00000000
00000000
ENDCHAR
STARTCHAR char90
ENCODING 90
SWIDTH 2052 0
DWIDTH 27 0
BBX 23 37 0 -10
BITMAP
000000
000000
000000
FFFFFE
FFFFFE
FFFFFE
FE01FE
F803FC
F807F8
F00FF0
F01FE0
F03FC0
F07F80
007F00
00FE00
01FE00
03FC00
07F81E
0FF01E
1FE01E
3FC03E
7F803E
FF00FE
FFFFFE
FFFFFE
FFFFFE
FFFFFE
000000
000000
000000
000000
000000
000000
000000
000000
000000
000000
ENDCHAR
STARTCHAR char91
ENCODING 91
SWIDTH 1140 0
DWIDTH 15 0
BBX 9 37 0 -10
BITMAP
FF80
FF80
FF80
FC00
F800
F800
F800
F800
F800
F800
F800
F800
F800
F800
F800
F800
F800
F800
F800
F800
F800
F800
F800
F800
F800
F800
F800
FC00
FF80
FF80
FF80
0000
0000
0000
0000
0000
0000
ENDCHAR
STARTCHAR char92
ENCODING 92
SWIDTH 1216 0
DWIDTH 16 0
BBX 13 37 1 -10
BITMAP
0000
F000
7000
7800
7800
3800
3C00
3C00
1C00
1E00
1E00
0E00
0F00
0F00
0700
0780
0780
0380
03C0
03C0
01C0
01E0
01E0
00E0
00F0
00F0
0070
0078
0078
0038
0038
0000
0000
0000
0000
0000
0000
ENDCHAR
STARTCHAR char93
ENCODING 93
SWIDTH 1140 0
DWIDTH 15 0
BBX 9 37 0 -10
BITMAP
FF80
FF80
FF80
1F80
0F80
0F80
0F80
0F80
0F80
0F80
0F80
0F80
0F80
0F80
0F80
0F80
0F80
0F80
0F80
0F80
0F80
0F80
0F80
0F80
0F80
0F80
0F80
1F80
FF80
FF80
FF80
0000
0000
0000
0000
0000
0000
ENDCHAR
STARTCHAR char95
ENCODING 95
SWIDTH 2432 0
DWIDTH 32 0
BBX 32 37 0 -10
BITMAP
00000000
00000000
00000000
00000000
00000000
00000000
00000000
00000000
00000000
00000000
00000000
00000000
00000000
00000000
00000000
00000000
00000000
00000000
00000000
00000000
00000000
00000000
00000000
00000000
00000000
00000000
00000000
FFFFFFFF
FFFFFFFF
FFFFFFFF
00000000
00000000
00000000
00000000
00000000
00000000
00000000
ENDCHAR
STARTCHAR char96
ENCODING 96
SWIDTH 684 0
DWIDTH 9 0
BBX 8 37 0 -10
BITMAP
00
00
00
3C
7F
FF
FF
E7
C0
60
38
1C
0C
08
00
00
00
00
00
00
00
00
00
00
00
00
00
00
00
00
00
00
00
00
00
00
00
ENDCHAR
STARTCHAR char97
ENCODING 97
SWIDTH 1748 0
DWIDTH 23 0
BBX 20 37 0 -10
BITMAP
000000
000000
000000
000000
000000
000000
000000
000000
000000
000000
000000
000000
0FF000
3FFC00
7FFE00
FC1F00
FE1F00
7C1F00
001F00
07FF00
3FFF00
7F1F00
FC1F70
FC3F70
FFFFF0
7FCFE0
3F07C0
000000
000000
000000
000000
000000
000000
000000
000000
000000
000000
ENDCHAR
STARTCHAR char98
ENCODING 98
SWIDTH 1824 0
DWIDTH 24 0
BBX 21 37 0 -10
BITMAP
000000
000000
000000
FF0000
FF0000
FF0000
FF0000
3F0000
3F0000
3F0000
3F0000
3F0000
3F3F00
3FFFC0
3FFFE0
3F83F0
3F01F0
3F01F8
3F01F8
3F01F8
3F01F8
3F01F8
3F01F0
3F83F0
3FFFE0
3DFFC0
387F00
000000
000000
000000
000000
000000
000000
000000
000000
000000
000000
ENDCHAR
STARTCHAR char99
ENCODING 99
SWIDTH 1368 0
DWIDTH 18 0
BBX 15 37 0 -10
BITMAP
0000
0000
0000
0000
0000
0000
0000
0000
0000
0000
0000
0000
0FE0
3FF8
7E7C
7C3E
F87E
F87E
F83C
F800
F800
F81E
F81E
7C1E
7FFC
3FF8
0FE0
0000
0000
0000
0000
0000
0000
0000
0000
0000
0000
ENDCHAR
STARTCHAR char100
ENCODING 100
SWIDTH 1824 0
DWIDTH 24 0
BBX 21 37 0 -10
BITMAP
000000
000000
000000
007FE0
007FE0
007FE0
0007E0
0007E0
0007E0
0007E0
0007E0
0007E0
07C7E0
1FF7E0
3FFFE0
7E1FE0
7C0FE0
F807E0
F807E0
F807E0
F807E0
F807E0
FC0FE0
7E1FE0
7FFFF8
3FFFF8
0FE7F8
000000
000000
000000
000000
000000
000000
000000
000000
000000
000000
ENDCHAR
STARTCHAR char101
ENCODING 101
SWIDTH 1520 0
DWIDTH 20 0
BBX 17 37 0 -10
BITMAP
000000
000000
000000
000000
000000
000000
000000
000000
000000
000000
000000
000000
07F800
1FFE00
3FFF00
7E1F00
7C0F80
FFFF80
FFFF80
FFFF80
FC0000
FC0000
7C0780
7E0F80
3FFF00
1FFE00
07F800
000000
000000
000000
000000
000000
000000
000000
000000
000000
000000
ENDCHAR
STARTCHAR char102
ENCODING 102
SWIDTH 1368 0
DWIDTH 18 0
BBX 16 37 0 -10
BITMAP
0000
0000
0000
00F0
03FC
07FE
0F8F
0F9F
1F9F
1F8E
1F80
1F80
FFFC
FFFC
FFFC
1F80
1F80
1F80
1F80
1F80
1F80
1F80
1F80
1F80
3FC0
FFF8
FFF8
0000
0000
0000
0000
0000
0000
0000
0000
0000
0000
ENDCHAR
STARTCHAR char103
ENCODING 103
SWIDTH 1824 0
DWIDTH 24 0
BBX 21 37 0 -10
BITMAP
000000
000000
000000
000000
000000
000000
000000
000000
000000
000000
000000
000070
03F0F8
0FFFF8
1FFFF8
3E1F30
7C0F80
7C0F80
FC0F80
FC0F80
7C0F80
3FFF00
3FFC00
3FF000
700000
F00000
FFFF00
FFFFC0
7FFFE0
7C03E0
F001E0
F003E0
FFFFC0
7FFF80
1FFE00
000000
000000
ENDCHAR
STARTCHAR char104
ENCODING 104
SWIDTH 2052 0
DWIDTH 27 0
BBX 24 37 0 -10
BITMAP
000000
000000
000000
FF0000
FF0000
FF0000
1F0000
1F0000
1F0000
1F0000
1F0000
1F0000
1F0F80
1F3FE0
1F7FF0
1FFFF0
1FC1F8
1F81F8
1F81F8
1F81F8
1F81F8
1F81F8
1F81F8
1F81F8
FFE7FF
FFE7FF
FFE7FF
000000
000000
000000
000000
000000
000000
000000
000000
000000
000000
ENDCHAR
STARTCHAR char105
ENCODING 105
SWIDTH 1140 0
DWIDTH 15 0
BBX 12 37 0 -10
BITMAP
0000
0000
0000
0000
1F00
3F80
3F80
3F80
3F80
1F00
0000
0000
FF80
FF80
FF80
3F80
1F80
1F80
1F80
1F80
1F80
1F80
1F80
3FC0
FFF0
FFF0
FFF0
0000
0000
0000
0000
0000
0000
0000
0000
0000
0000
ENDCHAR
STARTCHAR char106
ENCODING 106
SWIDTH 1140 0
DWIDTH 15 0
BBX 12 37 0 -10
BITMAP
0000
0000
0000
0000
0000
03E0
07F0
07F0
07F0
07F0
03E0
0000
3FF0
3FF0
3FF0
07F0
03F0
03F0
03F0
03F0
03F0
03F0
03F0
03F0
03F0
03F0
03F0
03F0
03F0
73F0
FBF0
FBF0
F3E0
F3E0
7FC0
3F00
0000
ENDCHAR
STARTCHAR char107
ENCODING 107
SWIDTH 2052 0
DWIDTH 27 0
BBX 24 37 0 -10
BITMAP
000000
000000
000000
FF0000
FF0000
FF0000
3F0000
1F0000
1F0000
1F0000
1F0000
1F0000
1F0FFC
1F0FFC
1F0FFC
1F07E0
1F0FC0
1F3F80
1F7F80
1FFFC0
1FEFE0
1FC7F0
1F83F8
3F81FC
FFE7FF
FFE7FF
FFE7FF
000000
000000
000000
000000
000000
000000
000000
000000
000000
000000
ENDCHAR
STARTCHAR char108
ENCODING 108
SWIDTH 1140 0
DWIDTH 15 0
BBX 12 37 0 -10
BITMAP
0000
0000
0000
FF80
FF80
FF80
3F80
1F80
1F80
1F80
1F80
1F80
1F80
1F80
1F80
1F80
1F80
1F80
1F80
1F80
1F80
1F80
1F80
3FC0
FFF0
FFF0
FFF0
0000
0000
0000
0000
0000
0000
0000
0000
0000
0000
ENDCHAR
STARTCHAR char109
ENCODING 109
SWIDTH 2356 0
DWIDTH 31 0
BBX 28 37 0 -10
BITMAP
00000000
00000000
00000000
00000000
00000000
00000000
00000000
00000000
00000000
00000000
00000000
00000000
FE3C1E00
FEFE7F80
FFFEFFC0
3F9FC7C0
3F0F87C0
3E0F87C0
3E0F87C0
3E0F87C0
3E0F87C0
3E0F87C0
3E0F87C0
3E0F87C0
FF1FCFF0
FF1FCFF0
FF1FCFF0
00000000
00000000
00000000
00000000
00000000
00000000
00000000
00000000
00000000
00000000
ENDCHAR
STARTCHAR char110
ENCODING 110
SWIDTH 1748 0
DWIDTH 23 0
BBX 20 37 0 -10
BITMAP
000000
000000
000000
000000
000000
000000
000000
000000
000000
000000
000000
000000
FE3E00
FEFF00
FFFF80
3F8F80
1F0780
1E0780
1E0780
1E0780
1E0780
1E0780
1E0780
3E07C0
FF9FF0
FF9FF0
FF9FF0
000000
000000
000000
000000
000000
000000
000000
000000
000000
000000
ENDCHAR
STARTCHAR char111
ENCODING 111
SWIDTH 1444 0
DWIDTH 19 0
BBX 16 37 0 -10
BITMAP
0000
0000
0000
0000
0000
0000
0000
0000
0000
0000
0000
0000
07E0
1FF8
3FFC
7C3E
781E
F81F
F81F
F81F
F81F
F81F
781E
7C3E
3FFC
1FF8
07E0
0000
0000
0000
0000
0000
0000
0000
0000
0000
0000
ENDCHAR
STARTCHAR char112
ENCODING 112
SWIDTH 1900 0
DWIDTH 25 0
BBX 22 37 0 -10
BITMAP
000000
000000
000000
000000
000000
000000
000000
000000
000000
000000
000000
000000
FF1F00
FF7FC0
FFFFF0
3FC3F8
1F81F8
1F00FC
1F00FC
1F00FC
1F00FC
1F00FC
1F01F8
1F83F8
1FFFF0
1FFFC0
1F7F00
1F0000
1F0000
1F0000
1F0000
3F8000
FFF000
FFF000
000000
000000
000000
ENDCHAR
STARTCHAR char113
ENCODING 113
SWIDTH 1900 0
DWIDTH 25 0
BBX 22 37 0 -10
BITMAP
000000
000000
000000
000000
000000
000000
000000
000000
000000
000000
000000
000000
03E3F0
0FFBF0
3FFFF0
7FFFF0
7E07F0
FE03F0
FC03F0
FC03F0
FC03F0
FC03F0
7E03F0
7F07F0
3FFFF0
0FFFF0
03FBF0
0003F0
0003F0
0003F0
0003F0
0003F0
0007F8
001FFC
001FFC
000000
000000
ENDCHAR
STARTCHAR char114
ENCODING 114
SWIDTH 1596 0
DWIDTH 21 0
BBX 18 37 0 -10
BITMAP
000000
000000
000000
000000
000000
000000
000000
000000
000000
000000
000000
000000
FF1F00
FF7F80
FFFFC0
3FC3C0
1F87C0
1F07C0
1F0380
1F0000
1F0000
1F0000
1F0000
3F8000
FFF000
FFF000
FFF000
000000
000000
000000
000000
000000
000000
000000
000000
000000
000000
ENDCHAR
STARTCHAR char115
ENCODING 115
SWIDTH 1444 0
DWIDTH 19 0
BBX 16 37 0 -10
BITMAP
0000
0000
0000
0000
0000
0000
0000
0000
0000
0000
0000
0000
0FC7
3FF7
787F
F81F
F80F
FC00
7F80
3FF8
0FFE
00FF
E03F
F01F
F81F
FFFE
E7F8
0000
0000
0000
0000
0000
0000
0000
0000
0000
0000
ENDCHAR
STARTCHAR char116
ENCODING 116
SWIDTH 1292 0
DWIDTH 17 0
BBX 14 37 0 -10
BITMAP
0000
0000
0000
0000
0000
0000
0700
0700
0700
0700
0F00
1F00
FFF8
FFF8
FFF8
1F00
1F00
1F00
1F00
1F00
1F1C
1F1C
1F1C
1FF8
0FF8
0FF0
03E0
0000
0000
0000
0000
0000
0000
0000
0000
0000
0000
ENDCHAR
STARTCHAR char117
ENCODING 117
SWIDTH 1748 0
DWIDTH 23 0
BBX 20 37 0 -10
BITMAP
000000
000000
000000
000000
000000
000000
000000
000000
000000
000000
000000
000000
FE3FC0
FE3FC0
FE3FC0
3E0FC0
3E07C0
3E07C0
3E07C0
3E07C0
3E07C0
3E07C0
3E0FC0
3F1FC0
1FFFF0
0FF7F0
03C7F0
000000
000000
000000
000000
000000
000000
000000
000000
000000
000000
ENDCHAR
STARTCHAR char118
ENCODING 118
SWIDTH 1748 0
DWIDTH 23 0
BBX 20 37 0 -10
BITMAP
000000
000000
000000
000000
000000
000000
000000
000000
000000
000000
000000
000000
FFCFF0
FFCFF0
FFCFF0
3E03C0
1E03C0
1E0380
0F0780
0F8700
078700
07CE00
03CE00
03CC00
01FC00
01F800
00F800
000000
000000
000000
000000
000000
000000
000000
000000
000000
000000
ENDCHAR
STARTCHAR char119
ENCODING 119
SWIDTH 2584 0
DWIDTH 34 0
BBX 31 37 0 -10
BITMAP
00000000
00000000
00000000
00000000
00000000
00000000
00000000
00000000
00000000
00000000
00000000
00000000
FF9FF9FE
FF9FF9FE
FF9FF9FE
3E07E078
3F07E078
1F0FF070
1F0FF0F0
1F9EF8E0
0F9CF9E0
0FFC7DC0
0FF87FC0
07F83F80
07F03F80
03E01F00
03E01F00
00000000
00000000
00000000
00000000
00000000
00000000
00000000
00000000
00000000
00000000
ENDCHAR
STARTCHAR char120
ENCODING 120
SWIDTH 1672 0
DWIDTH 22 0
BBX 19 37 0 -10
BITMAP
000000
000000
000000
000000
000000
000000
000000
000000
000000
000000
000000
000000
FF9FE0
FF9FE0
FF9FE0
3F0F00
0F9E00
07FC00
03F800
01F800
03FC00
07BE00
0F1F00
1E0F80
FF3FE0
FF3FE0
FF3FE0
000000
000000
000000
000000
000000
000000
000000
000000
000000
000000
ENDCHAR
STARTCHAR char121
ENCODING 121
SWIDTH 1900 0
DWIDTH 25 0
BBX 22 37 0 -10
BITMAP
000000
000000
000000
000000
000000
000000
000000
000000
000000
000000
000000
000000
FFE7FC
FFE7FC
FFE7FC
3F81F0
1F81E0
0FC3C0
07C3C0
07C780
03E780
03EF00
01FE00
01FE00
00FC00
00FC00
007800
307800
78F000
F8E000
F9E000
FBC000
FF8000
7F0000
1C0000
000000
000000
ENDCHAR
STARTCHAR char122
ENCODING 122
SWIDTH 1672 0
DWIDTH 22 0
BBX 18 37 0 -10
BITMAP
000000
000000
000000
000000
000000
000000
000000
000000
000000
000000
000000
000000
FFFFC0
FFFFC0
FFFF80
F83F00
F07E00
F0FC00
01F800
03F000
07E000
0FC3C0
1F83C0
7F07C0
FFFFC0
FFFFC0
FFFFC0
000000
000000
000000
000000
000000
000000
000000
000000
000000
000000
ENDCHAR
STARTCHAR char123
ENCODING 123
SWIDTH 1900 0
DWIDTH 25 0
BBX 9 37 11 -10
BITMAP
0000
0000
0780
0F00
1C00
3800
3800
3800
3800
3C00
3C00
3C00
3C00
3C00
3C00
7800
F800
F800
F800
F800
7800
3C00
3C00
3C00
3C00
3C00
3C00
3800
3800
3800
3800
1C00
0F00
0780
0000
0000
0000
ENDCHAR
STARTCHAR char124
ENCODING 124
SWIDTH 608 0
DWIDTH 8 0
BBX 4 37 2 -10
BITMAP
00
00
00
F0
F0
F0
F0
F0
F0
F0
F0
F0
F0
F0
F0
F0
F0
F0
F0
F0
F0
F0
F0
F0
F0
F0
F0
F0
F0
F0
F0
F0
F0
00
00
00
00
ENDCHAR
STARTCHAR char125
ENCODING 125
SWIDTH 1900 0
DWIDTH 25 0
BBX 8 37 2 -10
BITMAP
00
00
F0
78
1C
1E
0E
0E
1C
1C
1C
1C
1C
1C
1C
0E
0F
0F
0F
0F
0E
1C
1C
1C
1C
1C
1C
1C
0E
0E
1E
1C
78
F0
00
00
00
ENDCHAR
STARTCHAR char126
ENCODING 126
SWIDTH 1900 0
DWIDTH 25 0
BBX 21 37 0 -10
BITMAP
000000
000000
000000
000000
000000
000000
000000
000000
000000
000000
0F8008
1FC008
3FE008
7FF018
7FF838
71FC70
E0FFF0
C07FF0
803FE0
801FC0
800F80
000000
000000
000000
000000
000000
000000
000000
000000
000000
000000
000000
000000
000000
000000
000000
000000
ENDCHAR
STARTCHAR char127
ENCODING 127
SWIDTH 1672 0
DWIDTH 22 0
BBX 22 37 0 -10
BITMAP
000000
000000
000000
000000
0000F0
0001F8
00039C
00039C
000700
000700
000E00
000E00
001C00
001C00
003800
003800
007000
007000
00E000
00E000
01C000
01C000
038000
038000
E70000
E70000
7E0000
380000
000000
000000
000000
000000
000000
000000
000000
000000
000000
ENDCHAR
ENDFONT
